<svg width="51" height="51" viewBox="0 0 51 51" fill="none" xmlns="http://www.w3.org/2000/svg">
<path fill-rule="evenodd" clip-rule="evenodd" d="M25.5 51C39.5833 51 51 39.5833 51 25.5C51 11.4167 39.5833 0 25.5 0C11.4167 0 0 11.4167 0 25.5C0 39.5833 11.4167 51 25.5 51Z" fill="#262626"/>
<path fill-rule="evenodd" clip-rule="evenodd" d="M25.5 14.6625C28.4433 14.6625 28.8123 14.675 29.9682 14.7278C31.1218 14.7803 31.9097 14.9635 32.5989 15.2315C33.3116 15.5083 33.916 15.879 34.5186 16.4814C35.121 17.084 35.4916 17.6883 35.7686 18.401C36.0364 19.0903 36.2197 19.8781 36.2722 21.0317C36.325 22.1877 36.3375 22.5566 36.3375 25.5C36.3375 28.4433 36.325 28.8123 36.2722 29.9682C36.2197 31.1218 36.0364 31.9097 35.7686 32.5989C35.4916 33.3116 35.121 33.916 34.5186 34.5186C33.916 35.121 33.3116 35.4916 32.5989 35.7686C31.9097 36.0364 31.1218 36.2197 29.9682 36.2722C28.8123 36.325 28.4433 36.3375 25.5 36.3375C22.5566 36.3375 22.1877 36.325 21.0317 36.2722C19.8781 36.2197 19.0903 36.0364 18.401 35.7686C17.6883 35.4916 17.084 35.121 16.4814 34.5186C15.879 33.916 15.5083 33.3116 15.2315 32.5989C14.9635 31.9097 14.7803 31.1218 14.7278 29.9682C14.675 28.8123 14.6625 28.4433 14.6625 25.5C14.6625 22.5566 14.675 22.1877 14.7278 21.0317C14.7803 19.8781 14.9635 19.0903 15.2315 18.401C15.5083 17.6883 15.879 17.084 16.4814 16.4814C17.084 15.879 17.6883 15.5083 18.401 15.2315C19.0903 14.9635 19.8781 14.7803 21.0317 14.7278C22.1877 14.675 22.5566 14.6625 25.5 14.6625ZM25.4965 29.108C27.491 29.108 29.108 27.491 29.108 25.4965C29.108 23.502 27.491 21.8852 25.4965 21.8852C23.502 21.8852 21.8852 23.502 21.8852 25.4965C21.8852 27.491 23.502 29.108 25.4965 29.108ZM25.4965 19.9331C28.5692 19.9331 31.06 22.4239 31.06 25.4965C31.06 28.5692 28.5692 31.06 25.4965 31.06C22.4239 31.06 19.9331 28.5692 19.9331 25.4965C19.9331 22.4239 22.4239 19.9331 25.4965 19.9331ZM32.9659 19.5995C32.9659 20.3311 32.3727 20.9241 31.6411 20.9241C30.9097 20.9241 30.3167 20.3311 30.3167 19.5995C30.3167 18.8681 30.9097 18.2749 31.6411 18.2749C32.3727 18.2749 32.9659 18.8681 32.9659 19.5995Z" fill="white"/>
</svg>
