<svg width="50" height="50" viewBox="0 0 50 50" fill="none" xmlns="http://www.w3.org/2000/svg">
<path fill-rule="evenodd" clip-rule="evenodd" d="M25 50C38.8071 50 50 38.8071 50 25C50 11.1929 38.8071 0 25 0C11.1929 0 0 11.1929 0 25C0 38.8071 11.1929 50 25 50Z" fill="#4267B2"/>
<path d="M39.8303 33.256C39.7915 33.1736 39.7554 33.1054 39.7219 33.0506C39.1667 32.0648 38.1057 30.8548 36.5396 29.4202L36.5065 29.3873L36.4899 29.3712L36.4732 29.3547H36.4564C35.7456 28.6867 35.2955 28.2375 35.107 28.0076C34.7621 27.5695 34.6849 27.1261 34.8734 26.6768C35.0065 26.3374 35.5068 25.6205 36.3729 24.5253C36.8285 23.9448 37.1893 23.4796 37.4557 23.1291C39.3774 20.6103 40.2106 19.0008 39.955 18.2998L39.8557 18.136C39.789 18.0374 39.6169 17.9472 39.3395 17.8649C39.0615 17.7828 38.7062 17.7693 38.2729 17.824L33.4746 17.8566C33.3969 17.8295 33.2859 17.832 33.1413 17.8649C32.9969 17.8978 32.9246 17.9144 32.9246 17.9144L32.8411 17.9555L32.7748 18.0049C32.7193 18.0376 32.6582 18.0951 32.5915 18.1772C32.5251 18.2591 32.4696 18.3552 32.4253 18.4647C31.9029 19.7897 31.3089 21.0217 30.6423 22.1605C30.2313 22.8395 29.8539 23.428 29.5092 23.9263C29.1649 24.4245 28.8761 24.7915 28.6431 25.0267C28.4096 25.2622 28.199 25.4509 28.0098 25.5934C27.8209 25.7359 27.6767 25.7962 27.5768 25.7741C27.4768 25.7521 27.3825 25.7302 27.2933 25.7084C27.1379 25.6098 27.0129 25.4756 26.9186 25.3059C26.824 25.1362 26.7603 24.9226 26.7269 24.6652C26.6938 24.4077 26.6742 24.1862 26.6686 24C26.6634 23.814 26.6658 23.5509 26.677 23.2114C26.6886 22.8718 26.6938 22.642 26.6938 22.5216C26.6938 22.1054 26.702 21.6537 26.7185 21.1664C26.7353 20.6791 26.7489 20.2929 26.7603 20.0085C26.7716 19.7238 26.7769 19.4225 26.7769 19.1049C26.7769 18.7874 26.7573 18.5383 26.7185 18.3575C26.6803 18.177 26.6215 18.0017 26.544 17.8319C26.4661 17.6621 26.3521 17.5308 26.2025 17.4376C26.0526 17.3445 25.8662 17.2707 25.6444 17.2158C25.0556 17.0844 24.3059 17.0134 23.3949 17.0023C21.3291 16.9805 20.0017 17.112 19.413 17.3967C19.1797 17.517 18.9686 17.6814 18.7799 17.8893C18.5799 18.1303 18.552 18.2619 18.6964 18.2835C19.3629 18.3819 19.8348 18.6174 20.1125 18.9897L20.2126 19.187C20.2905 19.3293 20.3682 19.5813 20.446 19.9426C20.5236 20.3039 20.5738 20.7036 20.5958 21.1414C20.6513 21.941 20.6513 22.6254 20.5958 23.1947C20.5402 23.7643 20.4877 24.2077 20.4376 24.5253C20.3874 24.8429 20.3125 25.1002 20.2126 25.2973C20.1125 25.4944 20.0459 25.6149 20.0126 25.6586C19.9792 25.7023 19.9515 25.7299 19.9294 25.7407C19.785 25.7952 19.6349 25.823 19.4795 25.823C19.3238 25.823 19.1351 25.7463 18.913 25.5929C18.691 25.4395 18.4605 25.2288 18.2217 24.9605C17.9828 24.6921 17.7135 24.317 17.4135 23.8353C17.1137 23.3535 16.8026 22.7841 16.4805 22.127L16.214 21.6506C16.0474 21.344 15.8198 20.8977 15.531 20.3119C15.242 19.726 14.9866 19.1591 14.7646 18.6116C14.6758 18.3816 14.5425 18.2066 14.3648 18.0861L14.2814 18.0367C14.2259 17.9929 14.1369 17.9465 14.0149 17.897C13.8926 17.8476 13.765 17.8122 13.6316 17.7904L9.06651 17.823C8.60002 17.823 8.28349 17.9272 8.11683 18.1353L8.05013 18.2338C8.01681 18.2886 8 18.3762 8 18.4967C8 18.6172 8.03332 18.765 8.10002 18.9401C8.76645 20.4843 9.49117 21.9735 10.2742 23.4081C11.0572 24.8426 11.7376 25.9982 12.3151 26.8737C12.8926 27.7499 13.4813 28.5768 14.0812 29.3541C14.681 30.1316 15.078 30.6299 15.2723 30.8488C15.4668 31.0682 15.6196 31.2321 15.7306 31.3416L16.1472 31.7358C16.4138 31.9986 16.8053 32.3135 17.3218 32.6802C17.8384 33.0472 18.4103 33.4086 19.0379 33.7647C19.6656 34.1204 20.3958 34.4106 21.2289 34.635C22.062 34.8597 22.8728 34.9498 23.6614 34.9063H25.5775C25.9661 34.8732 26.2605 34.7528 26.4606 34.5448L26.5269 34.4625C26.5715 34.3971 26.6132 34.2956 26.6517 34.159C26.6907 34.0221 26.7101 33.8713 26.7101 33.7073C26.6987 33.2365 26.735 32.8122 26.8181 32.4344C26.9012 32.0568 26.9958 31.772 27.1017 31.5803C27.2075 31.3887 27.3269 31.227 27.4598 31.096C27.5929 30.9646 27.6878 30.885 27.7435 30.8576C27.7988 30.8301 27.843 30.8114 27.8763 30.8002C28.1429 30.7126 28.4566 30.7974 28.8179 31.055C29.179 31.3123 29.5176 31.6301 29.8344 32.0077C30.151 32.3857 30.5313 32.8098 30.9755 33.2806C31.42 33.7516 31.8087 34.1017 32.1418 34.332L32.4749 34.5291C32.6973 34.6606 32.9861 34.7811 33.3416 34.8906C33.6965 35 34.0074 35.0274 34.2744 34.9727L38.5395 34.9071C38.9613 34.9071 39.2896 34.8382 39.5224 34.7016C39.7557 34.5647 39.8943 34.4139 39.939 34.2499C39.9836 34.0857 39.986 33.8994 39.9475 33.6911C39.908 33.4833 39.869 33.3381 39.8303 33.256Z" fill="white"/>
</svg>
